<svg width="900" height="600" viewBox="0 0 900 600" fill="none" xmlns="http://www.w3.org/2000/svg">
<path d="M900 0H0V600H900V0Z" fill="#B22234"/>
<path d="M0 69.231H900ZM900 161.539H0ZM0 253.846H900ZM900 346.154H0ZM0 438.462H900ZM900 530.769H0Z" fill="black"/>
<path d="M0 69.231H900M900 161.539H0M0 253.846H900M900 346.154H0M0 438.462H900M900 530.769H0" stroke="white" stroke-width="50"/>
<path d="M360 0H0V323.077H360V0Z" fill="#3C3B6E"/>
<path d="M30 13.8462L38.5669 47.2434L16.1384 26.6028H43.8615L21.4331 47.2434L30 13.8462Z" fill="white"/>
<path d="M30 78.4614L38.5669 111.859L16.1384 91.218H43.8615L21.4331 111.859L30 78.4614Z" fill="white"/>
<path d="M30 143.077L38.5669 176.474L16.1384 155.834H43.8615L21.4331 176.474L30 143.077Z" fill="white"/>
<path d="M30 207.692L38.5669 241.09L16.1384 220.449H43.8615L21.4331 241.09L30 207.692Z" fill="white"/>
<path d="M30 272.308L38.5669 305.705L16.1384 285.064H43.8615L21.4331 305.705L30 272.308Z" fill="white"/>
<path d="M60 46.1538L68.5669 79.551L46.1384 58.9104H73.8615L51.4331 79.551L60 46.1538Z" fill="white"/>
<path d="M60 110.769L68.5669 144.166L46.1384 123.526H73.8615L51.4331 144.166L60 110.769Z" fill="white"/>
<path d="M60 175.385L68.5669 208.782L46.1384 188.141H73.8615L51.4331 208.782L60 175.385Z" fill="white"/>
<path d="M60 240L68.5669 273.397L46.1384 252.757H73.8615L51.4331 273.397L60 240Z" fill="white"/>
<path d="M90 13.8462L98.5669 47.2434L76.1384 26.6028H103.862L81.4331 47.2434L90 13.8462Z" fill="white"/>
<path d="M90 78.4614L98.5669 111.859L76.1384 91.218H103.862L81.4331 111.859L90 78.4614Z" fill="white"/>
<path d="M90 143.077L98.5669 176.474L76.1384 155.834H103.862L81.4331 176.474L90 143.077Z" fill="white"/>
<path d="M90 207.692L98.5669 241.09L76.1384 220.449H103.862L81.4331 241.09L90 207.692Z" fill="white"/>
<path d="M90 272.308L98.5669 305.705L76.1384 285.064H103.862L81.4331 305.705L90 272.308Z" fill="white"/>
<path d="M120 46.1538L128.567 79.551L106.138 58.9104H133.861L111.433 79.551L120 46.1538Z" fill="white"/>
<path d="M120 110.769L128.567 144.166L106.138 123.526H133.861L111.433 144.166L120 110.769Z" fill="white"/>
<path d="M120 175.385L128.567 208.782L106.138 188.141H133.861L111.433 208.782L120 175.385Z" fill="white"/>
<path d="M120 240L128.567 273.397L106.138 252.757H133.861L111.433 273.397L120 240Z" fill="white"/>
<path d="M150 13.8462L158.567 47.2434L136.138 26.6028H163.862L141.433 47.2434L150 13.8462Z" fill="white"/>
<path d="M150 78.4614L158.567 111.859L136.138 91.218H163.862L141.433 111.859L150 78.4614Z" fill="white"/>
<path d="M150 143.077L158.567 176.474L136.138 155.834H163.862L141.433 176.474L150 143.077Z" fill="white"/>
<path d="M150 207.692L158.567 241.09L136.138 220.449H163.862L141.433 241.09L150 207.692Z" fill="white"/>
<path d="M150 272.308L158.567 305.705L136.138 285.064H163.862L141.433 305.705L150 272.308Z" fill="white"/>
<path d="M180 46.1538L188.567 79.551L166.138 58.9104H193.862L171.433 79.551L180 46.1538Z" fill="white"/>
<path d="M180 110.769L188.567 144.166L166.138 123.526H193.862L171.433 144.166L180 110.769Z" fill="white"/>
<path d="M180 175.385L188.567 208.782L166.138 188.141H193.862L171.433 208.782L180 175.385Z" fill="white"/>
<path d="M180 240L188.567 273.397L166.138 252.757H193.862L171.433 273.397L180 240Z" fill="white"/>
<path d="M210 13.8462L218.567 47.2434L196.138 26.6028H223.862L201.433 47.2434L210 13.8462Z" fill="white"/>
<path d="M210 78.4614L218.567 111.859L196.138 91.218H223.862L201.433 111.859L210 78.4614Z" fill="white"/>
<path d="M210 143.077L218.567 176.474L196.138 155.834H223.862L201.433 176.474L210 143.077Z" fill="white"/>
<path d="M210 207.692L218.567 241.09L196.138 220.449H223.862L201.433 241.09L210 207.692Z" fill="white"/>
<path d="M210 272.308L218.567 305.705L196.138 285.064H223.862L201.433 305.705L210 272.308Z" fill="white"/>
<path d="M240 46.1538L248.567 79.551L226.139 58.9104H253.862L231.433 79.551L240 46.1538Z" fill="white"/>
<path d="M240 110.769L248.567 144.166L226.139 123.526H253.862L231.433 144.166L240 110.769Z" fill="white"/>
<path d="M240 175.385L248.567 208.782L226.139 188.141H253.862L231.433 208.782L240 175.385Z" fill="white"/>
<path d="M240 240L248.567 273.397L226.139 252.757H253.862L231.433 273.397L240 240Z" fill="white"/>
<path d="M270 13.8462L278.567 47.2434L256.138 26.6028H283.862L261.433 47.2434L270 13.8462Z" fill="white"/>
<path d="M270 78.4614L278.567 111.859L256.138 91.218H283.862L261.433 111.859L270 78.4614Z" fill="white"/>
<path d="M270 143.077L278.567 176.474L256.138 155.834H283.862L261.433 176.474L270 143.077Z" fill="white"/>
<path d="M270 207.692L278.567 241.09L256.138 220.449H283.862L261.433 241.09L270 207.692Z" fill="white"/>
<path d="M270 272.308L278.567 305.705L256.138 285.064H283.862L261.433 305.705L270 272.308Z" fill="white"/>
<path d="M300 46.1538L308.567 79.551L286.139 58.9104H313.862L291.433 79.551L300 46.1538Z" fill="white"/>
<path d="M300 110.769L308.567 144.166L286.139 123.526H313.862L291.433 144.166L300 110.769Z" fill="white"/>
<path d="M300 175.385L308.567 208.782L286.139 188.141H313.862L291.433 208.782L300 175.385Z" fill="white"/>
<path d="M300 240L308.567 273.397L286.139 252.757H313.862L291.433 273.397L300 240Z" fill="white"/>
<path d="M330 13.8462L338.567 47.2434L316.138 26.6028H343.862L321.433 47.2434L330 13.8462Z" fill="white"/>
<path d="M330 78.4614L338.567 111.859L316.138 91.218H343.862L321.433 111.859L330 78.4614Z" fill="white"/>
<path d="M330 143.077L338.567 176.474L316.138 155.834H343.862L321.433 176.474L330 143.077Z" fill="white"/>
<path d="M330 207.692L338.567 241.09L316.138 220.449H343.862L321.433 241.09L330 207.692Z" fill="white"/>
<path d="M330 272.308L338.567 305.705L316.138 285.064H343.862L321.433 305.705L330 272.308Z" fill="white"/>
</svg>
